<svg xmlns="http://www.w3.org/2000/svg" viewBox="0 0 1200 800">
  <rect width="1200" height="800" fill="#05030f"/>
  <defs>
    <linearGradient id="panelGradient" x1="0%" y1="0%" x2="100%" y2="0%">
      <stop offset="0%" stop-color="#10122a"/>
      <stop offset="100%" stop-color="#1e2a5a"/>
    </linearGradient>
  </defs>
  <rect x="60" y="80" width="1080" height="640" rx="32" fill="url(#panelGradient)" stroke="#2e5cff" stroke-width="3"/>
  <g font-family="'Orbitron', 'Arial', sans-serif" font-weight="600" fill="#e7f0ff" text-anchor="middle">
    <text x="600" y="140" font-size="36" letter-spacing="8">VANGUARD // DLC GLIDER BAY</text>
    <text x="600" y="180" font-size="18" fill="#86b6ff" letter-spacing="4">PIXEL AERODYNAMICS - REV 5.4</text>
  </g>
  <g font-family="'Press Start 2P', monospace" font-size="16" fill="#ffe66d">
    <text x="260" y="220">PHOTON LYNX</text>
    <text x="600" y="220">NEBULA AEGIS</text>
    <text x="940" y="220">METEOR VIPER</text>
  </g>
  <g>
    <rect x="140" y="240" width="240" height="320" rx="18" fill="#141a3a" stroke="#30f5ff" stroke-width="2"/>
    <rect x="480" y="240" width="240" height="320" rx="18" fill="#1a143a" stroke="#ff6edb" stroke-width="2"/>
    <rect x="820" y="240" width="240" height="320" rx="18" fill="#1a2810" stroke="#8dff6e" stroke-width="2"/>
  </g>
  <g shape-rendering="crispEdges">
    <g transform="translate(160,260)">
      <rect x="0" y="0" width="200" height="200" fill="#1a2644" stroke="#30f5ff" stroke-width="1"/>
      <rect x="10" y="80" width="180" height="40" fill="#162040"/>
      <polygon points="20,110 60,70 120,70 180,110 150,140 50,140" fill="#4ce1ff"/>
      <polygon points="60,70 90,40 140,40 120,70" fill="#85f9ff"/>
      <rect x="40" y="120" width="120" height="16" fill="#0b132c"/>
      <rect x="70" y="90" width="60" height="16" fill="#10264f"/>
      <rect x="90" y="60" width="22" height="10" fill="#30f5ff"/>
      <rect x="48" y="146" width="104" height="12" fill="#30f5ff" opacity="0.5"/>
      <text x="100" y="190" text-anchor="middle" font-family="'Press Start 2P', monospace" font-size="10" fill="#80f8ff">AURA DUAL-LANCE</text>
    </g>
    <g transform="translate(500,260)">
      <rect x="0" y="0" width="200" height="200" fill="#2a143e" stroke="#ff6edb" stroke-width="1"/>
      <rect x="18" y="90" width="164" height="36" fill="#210b36"/>
      <polygon points="30,120 80,70 120,70 170,120 130,150 70,150" fill="#ff8de0"/>
      <polygon points="80,70 100,40 130,40 120,70" fill="#ffd0f6"/>
      <rect x="68" y="120" width="64" height="14" fill="#350a43"/>
      <rect x="58" y="96" width="84" height="12" fill="#461255"/>
      <rect x="92" y="60" width="18" height="10" fill="#ff6edb"/>
      <rect x="60" y="148" width="80" height="12" fill="#ff6edb" opacity="0.5"/>
      <text x="100" y="190" text-anchor="middle" font-family="'Press Start 2P', monospace" font-size="10" fill="#ffd6ff">ARC-SHIELD VECTOR</text>
    </g>
    <g transform="translate(840,260)">
      <rect x="0" y="0" width="200" height="200" fill="#1e2a16" stroke="#8dff6e" stroke-width="1"/>
      <rect x="14" y="88" width="172" height="40" fill="#172410"/>
      <polygon points="30,122 76,70 124,70 170,122 136,150 64,150" fill="#a6ff72"/>
      <polygon points="76,70 102,42 132,42 124,70" fill="#d2ffb6"/>
      <rect x="70" y="120" width="60" height="14" fill="#1a2a12"/>
      <rect x="62" y="96" width="76" height="12" fill="#253b16"/>
      <rect x="96" y="60" width="18" height="10" fill="#8dff6e"/>
      <rect x="68" y="148" width="72" height="12" fill="#8dff6e" opacity="0.5"/>
      <text x="100" y="190" text-anchor="middle" font-family="'Press Start 2P', monospace" font-size="10" fill="#d4ffd0">KINETIC TALON</text>
    </g>
  </g>
  <g font-family="'Roboto Mono', monospace" font-size="14" fill="#9bc9ff">
    <text x="260" y="590">• flux intake • anti-grav blade • lynx fins</text>
    <text x="600" y="590">• radiant canopy • particle shield • arc spoilers</text>
    <text x="940" y="590">• thermal spine • vipershard wings • thrust lattices</text>
  </g>
  <g font-family="'Roboto Mono', monospace" font-size="12" fill="#586bff">
    <text x="260" y="620">SPRINT SPECS: 840 KPH PEAK / 5.8G STABLE</text>
    <text x="600" y="620">DEFENSE SPECS: 770 KPH PEAK / SHIELD 92%</text>
    <text x="940" y="620">ASSAULT SPECS: 910 KPH PEAK / 6.5G STABLE</text>
  </g>
  <g font-family="'Rajdhani', 'Arial', sans-serif" font-size="16" fill="#6a84ff" text-anchor="middle">
    <text x="600" y="690">INTEGRATED FOR DLC CIRCUIT PACK 01 // DEPLOY VIA GARAGE PATCH</text>
  </g>
</svg>
