<svg xmlns="http://www.w3.org/2000/svg" viewBox="0 0 1200 600">
  <rect width="1200" height="600" fill="#040612"/>
  <g font-family="'Orbitron', 'Arial', sans-serif" font-weight="600" text-anchor="middle" fill="#ffffff">
    <text x="200" y="70" font-size="28" letter-spacing="4">NOVA RIFT</text>
    <text x="600" y="70" font-size="28" letter-spacing="4">CYGNUS SPIRAL</text>
    <text x="1000" y="70" font-size="28" letter-spacing="4">OBSIDIAN MIRAGE</text>
  </g>
  <g fill="none" stroke-width="6" stroke-linecap="round" stroke-linejoin="round">
    <rect x="40" y="100" width="320" height="440" rx="28" fill="url(#novaGradient)" stroke="#58f6ff" stroke-width="2"/>
    <rect x="440" y="100" width="320" height="440" rx="28" fill="url(#cygnusGradient)" stroke="#ffd95e" stroke-width="2"/>
    <rect x="840" y="100" width="320" height="440" rx="28" fill="url(#obsidianGradient)" stroke="#ff6ec7" stroke-width="2"/>
  </g>
  <defs>
    <linearGradient id="novaGradient" x1="0%" y1="0%" x2="100%" y2="100%">
      <stop offset="0%" stop-color="#071124"/>
      <stop offset="45%" stop-color="#142e5a"/>
      <stop offset="100%" stop-color="#31d2ff"/>
    </linearGradient>
    <linearGradient id="cygnusGradient" x1="0%" y1="0%" x2="100%" y2="100%">
      <stop offset="0%" stop-color="#160029"/>
      <stop offset="45%" stop-color="#321573"/>
      <stop offset="100%" stop-color="#ffd65a"/>
    </linearGradient>
    <linearGradient id="obsidianGradient" x1="0%" y1="0%" x2="100%" y2="100%">
      <stop offset="0%" stop-color="#050509"/>
      <stop offset="45%" stop-color="#181033"/>
      <stop offset="100%" stop-color="#ff3f9f"/>
    </linearGradient>
  </defs>
  <g stroke="#58f6ff" stroke-width="4" fill="none" opacity="0.95">
    <path d="M110 220 C180 160 260 160 300 240 S250 420 150 420 C90 410 70 360 100 320"/>
    <circle cx="150" cy="220" r="6" fill="#58f6ff"/>
    <circle cx="270" cy="320" r="6" fill="#58f6ff"/>
  </g>
  <g stroke="#ffd95e" stroke-width="4" fill="none" opacity="0.95">
    <path d="M510 420 C460 350 500 250 580 240 C640 230 680 280 690 340 C705 440 580 480 520 420"/>
    <circle cx="580" cy="240" r="6" fill="#ffd95e"/>
    <circle cx="660" cy="360" r="6" fill="#ffd95e"/>
  </g>
  <g stroke="#ff6ec7" stroke-width="4" fill="none" opacity="0.95">
    <path d="M910 220 Q960 160 1030 210 T1090 350 Q1030 420 970 380 T900 260"/>
    <circle cx="960" cy="200" r="6" fill="#ff6ec7"/>
    <circle cx="1050" cy="360" r="6" fill="#ff6ec7"/>
  </g>
  <g font-family="'Rajdhani', 'Arial', sans-serif" fill="#dff6ff" font-size="16">
    <text x="200" y="520">Graviton Shear • Rift Gate Sprint • Dyna-Lux Crowd Pods</text>
    <text x="600" y="520">Orbital Bloom • Lensing Arcs • S-Curve Chase</text>
    <text x="1000" y="520">Obsidian Sandstorm • Mirage Gate • Echoing Apex</text>
  </g>
  <g font-family="'Roboto Mono', monospace" font-size="13" fill="#9bdcff" letter-spacing="2">
    <text x="200" y="150" text-anchor="middle">DLC CIRCUIT PACK // 01</text>
    <text x="600" y="150" text-anchor="middle">DLC CIRCUIT PACK // 01</text>
    <text x="1000" y="150" text-anchor="middle">DLC CIRCUIT PACK // 01</text>
  </g>
</svg>
