<svg xmlns="http://www.w3.org/2000/svg" width="960" height="360" viewBox="0 0 960 360" role="img" aria-labelledby="title desc">
  <title id="title">Spacer-X Expansion Pixel Gliders</title>
  <desc id="desc">Drei neue Space-Glider in Pixelart-Interpretation mit Feature-Callouts.</desc>
  <defs>
    <linearGradient id="panelBg" x1="0" y1="0" x2="0" y2="1">
      <stop offset="0%" stop-color="#0f172a"/>
      <stop offset="100%" stop-color="#1f2937"/>
    </linearGradient>
    <linearGradient id="panelEdge" x1="0" y1="0" x2="1" y2="1">
      <stop offset="0%" stop-color="#38bdf8" stop-opacity="0"/>
      <stop offset="60%" stop-color="#7c3aed" stop-opacity="0.5"/>
      <stop offset="100%" stop-color="#22d3ee" stop-opacity="0"/>
    </linearGradient>
    <filter id="pixelShadow" x="-10%" y="-10%" width="120%" height="120%">
      <feDropShadow dx="0" dy="4" stdDeviation="6" flood-color="#0ea5e9" flood-opacity="0.2"/>
    </filter>
  </defs>
  <g transform="translate(40 30)">
    <rect width="260" height="300" rx="22" fill="url(#panelBg)" stroke="#1e3a8a" stroke-width="2" filter="url(#pixelShadow)"/>
    <rect x="20" y="24" width="220" height="252" rx="16" fill="#020617" opacity="0.55"/>
    <g transform="translate(52 72)" fill="#a855f7" stroke="#f9a8d4" stroke-width="2">
      <rect x="18" y="36" width="84" height="12" fill="#f0abfc" stroke="none"/>
      <rect x="10" y="48" width="120" height="18" fill="#a855f7"/>
      <rect x="0" y="66" width="140" height="20" fill="#7c3aed"/>
      <rect x="12" y="86" width="112" height="16" fill="#f0abfc"/>
      <rect x="34" y="10" width="76" height="28" fill="#f0abfc"/>
      <rect x="58" y="-8" width="28" height="18" fill="#e879f9"/>
      <rect x="52" y="104" width="36" height="28" fill="#c026d3"/>
      <rect x="-18" y="70" width="18" height="18" fill="#22d3ee"/>
      <rect x="138" y="70" width="18" height="18" fill="#22d3ee"/>
    </g>
    <text x="40" y="60" fill="#c7d2fe" font-family="'Orbitron', sans-serif" font-size="22" letter-spacing="0.2em">SPECTRAL HYDRA</text>
    <text x="40" y="214" fill="#bae6fd" font-family="'Rajdhani', sans-serif" font-size="14">· Phase-Shift Spoilers · Prism Lattice Hull ·</text>
    <text x="40" y="236" fill="#bae6fd" font-family="'Rajdhani', sans-serif" font-size="14">· Singularity Lure Pods ·</text>
  </g>
  <g transform="translate(340 30)">
    <rect width="260" height="300" rx="22" fill="url(#panelBg)" stroke="#0f766e" stroke-width="2" filter="url(#pixelShadow)"/>
    <rect x="20" y="24" width="220" height="252" rx="16" fill="#020617" opacity="0.55"/>
    <g transform="translate(48 80)" fill="#34d399" stroke="#5eead4" stroke-width="2">
      <rect x="18" y="28" width="92" height="12" fill="#86efac" stroke="none"/>
      <rect x="8" y="40" width="128" height="18" fill="#34d399"/>
      <rect x="0" y="58" width="148" height="20" fill="#0f766e"/>
      <rect x="12" y="78" width="120" height="16" fill="#2dd4bf"/>
      <rect x="36" y="8" width="80" height="28" fill="#6ee7b7"/>
      <rect x="60" y="-10" width="28" height="18" fill="#bef264"/>
      <rect x="56" y="96" width="36" height="26" fill="#047857"/>
      <rect x="-16" y="62" width="18" height="18" fill="#22d3ee"/>
      <rect x="148" y="62" width="18" height="18" fill="#22d3ee"/>
    </g>
    <text x="40" y="60" fill="#bbf7d0" font-family="'Orbitron', sans-serif" font-size="22" letter-spacing="0.2em">ION PEREGRINE</text>
    <text x="40" y="214" fill="#a7f3d0" font-family="'Rajdhani', sans-serif" font-size="14">· Cyclonic Intake Wings · Hydroflux Rudders ·</text>
    <text x="40" y="236" fill="#a7f3d0" font-family="'Rajdhani', sans-serif" font-size="14">· Bio-Field Dampeners ·</text>
  </g>
  <g transform="translate(640 30)">
    <rect width="260" height="300" rx="22" fill="url(#panelBg)" stroke="#f97316" stroke-width="2" filter="url(#pixelShadow)"/>
    <rect x="20" y="24" width="220" height="252" rx="16" fill="#020617" opacity="0.55"/>
    <g transform="translate(44 84)" fill="#fb923c" stroke="#fed7aa" stroke-width="2">
      <rect x="24" y="24" width="92" height="12" fill="#fed7aa" stroke="none"/>
      <rect x="12" y="36" width="132" height="18" fill="#fb923c"/>
      <rect x="2" y="54" width="152" height="20" fill="#c2410c"/>
      <rect x="14" y="74" width="124" height="16" fill="#f97316"/>
      <rect x="38" y="6" width="84" height="28" fill="#fed7aa"/>
      <rect x="64" y="-12" width="28" height="18" fill="#fbbf24"/>
      <rect x="60" y="92" width="36" height="28" fill="#9a3412"/>
      <rect x="-14" y="60" width="18" height="18" fill="#facc15"/>
      <rect x="150" y="60" width="18" height="18" fill="#facc15"/>
    </g>
    <text x="40" y="60" fill="#fed7aa" font-family="'Orbitron', sans-serif" font-size="22" letter-spacing="0.2em">LUMEN CYCLONE</text>
    <text x="40" y="214" fill="#fed7aa" font-family="'Rajdhani', sans-serif" font-size="14">· Emberwave Thrusters · Solar Lattice Spine ·</text>
    <text x="40" y="236" fill="#fed7aa" font-family="'Rajdhani', sans-serif" font-size="14">· Cyclone Resonance Core ·</text>
  </g>
</svg>
