<svg xmlns="http://www.w3.org/2000/svg" width="1240" height="360" viewBox="0 0 1240 360" role="img" aria-labelledby="title desc">
  <title id="title">Spacer-X Expansion Team Crests</title>
  <desc id="desc">Sechs neue Team-Embleme für die zweite Vanguard-Saison.</desc>
  <defs>
    <linearGradient id="panel" x1="0" y1="0" x2="0" y2="1">
      <stop offset="0%" stop-color="#020617"/>
      <stop offset="100%" stop-color="#0f172a"/>
    </linearGradient>
    <linearGradient id="glowBlue" x1="0" y1="0" x2="1" y2="1">
      <stop offset="0%" stop-color="#38bdf8"/>
      <stop offset="100%" stop-color="#312e81"/>
    </linearGradient>
    <linearGradient id="glowRose" x1="0" y1="0" x2="1" y2="1">
      <stop offset="0%" stop-color="#f472b6"/>
      <stop offset="100%" stop-color="#7c3aed"/>
    </linearGradient>
    <linearGradient id="glowEmerald" x1="0" y1="0" x2="1" y2="1">
      <stop offset="0%" stop-color="#22d3ee"/>
      <stop offset="100%" stop-color="#22c55e"/>
    </linearGradient>
    <linearGradient id="glowAmber" x1="0" y1="0" x2="1" y2="1">
      <stop offset="0%" stop-color="#fcd34d"/>
      <stop offset="100%" stop-color="#fb923c"/>
    </linearGradient>
    <linearGradient id="glowIndigo" x1="0" y1="0" x2="1" y2="1">
      <stop offset="0%" stop-color="#7c3aed"/>
      <stop offset="100%" stop-color="#1d4ed8"/>
    </linearGradient>
  </defs>
  <rect width="1240" height="360" rx="32" fill="url(#panel)" stroke="#1e293b" stroke-width="3"/>
  <g font-family="'Orbitron', sans-serif" font-size="20" letter-spacing="0.24em" fill="#e2e8f0" text-anchor="middle">
    <text x="120" y="310">LYRA SENTINELS</text>
    <text x="320" y="310">CYGNUS ALCHEMY</text>
    <text x="520" y="310">AURIC VANGUARD</text>
    <text x="720" y="310">TIDAL HERMES</text>
    <text x="920" y="310">ORBIT VEIL</text>
    <text x="1120" y="310">PHOTON VIRTUE</text>
  </g>
  <g transform="translate(40 80)">
    <path d="M80 0 L160 48 V152 L80 200 L0 152 V48 Z" fill="none" stroke="url(#glowBlue)" stroke-width="8"/>
    <path d="M80 34 L128 60 V140 L80 166 L32 140 V60 Z" fill="url(#glowBlue)" opacity="0.42"/>
    <path d="M80 52 L56 116 L104 116 Z" fill="#38bdf8"/>
    <circle cx="80" cy="102" r="18" fill="#0ea5e9" stroke="#e0f2fe" stroke-width="4"/>
  </g>
  <g transform="translate(240 80)">
    <path d="M80 0 L160 46 L140 200 L20 200 L0 46 Z" fill="none" stroke="url(#glowRose)" stroke-width="8" stroke-linejoin="round"/>
    <path d="M80 38 L130 58 L116 176 L44 176 L30 58 Z" fill="url(#glowRose)" opacity="0.4"/>
    <path d="M80 60 L54 154 H106 Z" fill="#f472b6"/>
    <circle cx="80" cy="82" r="20" fill="#fb7185" stroke="#ffe4e6" stroke-width="4"/>
  </g>
  <g transform="translate(440 80)">
    <path d="M80 0 L156 64 V176 L80 240 L4 176 V64 Z" fill="none" stroke="url(#glowAmber)" stroke-width="8" stroke-linejoin="round"/>
    <path d="M80 42 L132 84 V156 L80 198 L28 156 V84 Z" fill="url(#glowAmber)" opacity="0.4"/>
    <path d="M80 70 L54 130 L80 190 L106 130 Z" fill="#f97316"/>
    <circle cx="80" cy="106" r="18" fill="#fb923c" stroke="#fff7ed" stroke-width="4"/>
  </g>
  <g transform="translate(640 80)">
    <path d="M80 0 L158 56 L138 206 L22 206 L2 56 Z" fill="none" stroke="url(#glowEmerald)" stroke-width="8" stroke-linejoin="round"/>
    <path d="M80 38 L132 68 L118 182 L42 182 L28 68 Z" fill="url(#glowEmerald)" opacity="0.4"/>
    <path d="M80 64 C56 90 56 146 80 172 C104 146 104 90 80 64 Z" fill="#22d3ee"/>
    <circle cx="80" cy="112" r="20" fill="#34d399" stroke="#ecfeff" stroke-width="4"/>
  </g>
  <g transform="translate(840 80)">
    <path d="M80 0 L160 40 V160 L80 200 L0 160 V40 Z" fill="none" stroke="#6366f1" stroke-width="8" stroke-linejoin="round"/>
    <path d="M80 32 L136 58 V142 L80 168 L24 142 V58 Z" fill="#6366f1" opacity="0.4"/>
    <path d="M80 52 L48 126 L112 126 Z" fill="#a855f7"/>
    <circle cx="80" cy="96" r="18" fill="#c4b5fd" stroke="#ede9fe" stroke-width="4"/>
  </g>
  <g transform="translate(1040 80)">
    <path d="M80 0 L156 50 V158 L80 208 L4 158 V50 Z" fill="none" stroke="url(#glowIndigo)" stroke-width="8" stroke-linejoin="round"/>
    <path d="M80 34 L130 60 V144 L80 172 L30 144 V60 Z" fill="url(#glowIndigo)" opacity="0.42"/>
    <path d="M80 58 L56 124 L104 124 Z" fill="#7c3aed"/>
    <circle cx="80" cy="100" r="18" fill="#a855f7" stroke="#e0e7ff" stroke-width="4"/>
  </g>
</svg>
