<svg xmlns="http://www.w3.org/2000/svg" width="480" height="240" viewBox="0 0 480 240" role="img" aria-labelledby="title desc">
  <title id="title">Spacer-X Pixel Gliders</title>
  <desc id="desc">Pixelart-Sheet mit zwei neuen Space-Glider-Konzepten für das Rennspiel.</desc>
  <defs>
    <linearGradient id="sheetBg" x1="0" y1="0" x2="0" y2="1">
      <stop offset="0%" stop-color="#050915"/>
      <stop offset="100%" stop-color="#0f172a"/>
    </linearGradient>
  </defs>
  <rect width="480" height="240" rx="24" fill="url(#sheetBg)"/>
  <g transform="translate(48 36)">
    <rect x="0" y="0" width="160" height="160" rx="12" fill="#111827" stroke="#1f2937" stroke-width="2"/>
    <g transform="translate(32 24) scale(2)" shape-rendering="crispEdges">
      <rect x="16" y="8" width="16" height="4" fill="#38bdf8"/>
      <rect x="12" y="12" width="24" height="4" fill="#0ea5e9"/>
      <rect x="8" y="16" width="32" height="4" fill="#0ea5e9"/>
      <rect x="12" y="20" width="24" height="4" fill="#38bdf8"/>
      <rect x="18" y="24" width="12" height="12" fill="#1e40af"/>
      <rect x="20" y="26" width="8" height="8" fill="#38bdf8"/>
      <rect x="6" y="18" width="4" height="8" fill="#bae6fd"/>
      <rect x="42" y="18" width="4" height="8" fill="#bae6fd"/>
      <rect x="0" y="18" width="6" height="4" fill="#0ea5e9"/>
      <rect x="46" y="18" width="6" height="4" fill="#0ea5e9"/>
      <rect x="10" y="32" width="28" height="4" fill="#1e3a8a"/>
      <rect x="16" y="36" width="16" height="4" fill="#0f172a"/>
      <rect x="18" y="40" width="12" height="4" fill="#111827"/>
      <rect x="20" y="44" width="8" height="4" fill="#0f172a"/>
      <rect x="18" y="48" width="12" height="4" fill="#0ea5e9" opacity="0.6"/>
      <rect x="6" y="32" width="4" height="8" fill="#2dd4bf" opacity="0.7"/>
      <rect x="42" y="32" width="4" height="8" fill="#2dd4bf" opacity="0.7"/>
    </g>
    <text x="80" y="190" fill="#bae6fd" font-family="'Press Start 2P', monospace" font-size="12" text-anchor="middle">AETHER-LANCE</text>
    <text x="80" y="206" fill="#93c5fd" font-family="'Rajdhani', sans-serif" font-size="12" text-anchor="middle">Boost Grid · Plasma Rudders</text>
  </g>
  <g transform="translate(272 36)">
    <rect x="0" y="0" width="160" height="160" rx="12" fill="#111827" stroke="#1f2937" stroke-width="2"/>
    <g transform="translate(32 24) scale(2)" shape-rendering="crispEdges">
      <rect x="18" y="6" width="12" height="4" fill="#fb7185"/>
      <rect x="14" y="10" width="20" height="4" fill="#f472b6"/>
      <rect x="10" y="14" width="28" height="4" fill="#db2777"/>
      <rect x="8" y="18" width="32" height="4" fill="#9d174d"/>
      <rect x="16" y="22" width="16" height="4" fill="#fee2e2"/>
      <rect x="12" y="26" width="24" height="6" fill="#f472b6"/>
      <rect x="20" y="32" width="8" height="8" fill="#be123c"/>
      <rect x="4" y="20" width="4" height="10" fill="#fecdd3"/>
      <rect x="40" y="20" width="4" height="10" fill="#fecdd3"/>
      <rect x="0" y="22" width="4" height="6" fill="#fb7185"/>
      <rect x="44" y="22" width="4" height="6" fill="#fb7185"/>
      <rect x="10" y="32" width="8" height="4" fill="#fde68a" opacity="0.7"/>
      <rect x="34" y="32" width="8" height="4" fill="#fde68a" opacity="0.7"/>
      <rect x="18" y="40" width="12" height="4" fill="#fbcfe8" opacity="0.8"/>
      <rect x="14" y="44" width="20" height="4" fill="#831843" opacity="0.8"/>
      <rect x="18" y="48" width="12" height="4" fill="#9d174d" opacity="0.9"/>
      <rect x="20" y="52" width="8" height="6" fill="#f472b6"/>
    </g>
    <text x="80" y="190" fill="#f9a8d4" font-family="'Press Start 2P', monospace" font-size="12" text-anchor="middle">VIOLET-FLARE</text>
    <text x="80" y="206" fill="#fbcfe8" font-family="'Rajdhani', sans-serif" font-size="12" text-anchor="middle">Flux Vectoring · Echo Vanes</text>
  </g>
</svg>
