<svg xmlns="http://www.w3.org/2000/svg" width="1320" height="400" viewBox="0 0 1320 400" role="img" aria-labelledby="title desc">
  <title id="title">Spacer-X Panorama Track Concepts – Set 03</title>
  <desc id="desc">Triptychon mit neuen Stadien-Strecken: Luminaria Circuit, Ion Velodrome und Parallax Forum.</desc>
  <defs>
    <linearGradient id="luminariaGradient" x1="0" y1="0" x2="0" y2="1">
      <stop offset="0%" stop-color="#020617"/>
      <stop offset="45%" stop-color="#0b1440"/>
      <stop offset="100%" stop-color="#132868"/>
    </linearGradient>
    <linearGradient id="luminariaRim" x1="0" y1="0" x2="1" y2="0">
      <stop offset="0%" stop-color="#38bdf8" stop-opacity="0"/>
      <stop offset="48%" stop-color="#38bdf8" stop-opacity="0.85"/>
      <stop offset="100%" stop-color="#38bdf8" stop-opacity="0"/>
    </linearGradient>
    <radialGradient id="luminariaGlow" cx="0.5" cy="0.32" r="0.68">
      <stop offset="0%" stop-color="#38bdf8" stop-opacity="0.3"/>
      <stop offset="100%" stop-color="#38bdf8" stop-opacity="0"/>
    </radialGradient>

    <linearGradient id="ionGradient" x1="0" y1="0" x2="0" y2="1">
      <stop offset="0%" stop-color="#15000f"/>
      <stop offset="45%" stop-color="#310029"/>
      <stop offset="100%" stop-color="#4d0046"/>
    </linearGradient>
    <linearGradient id="ionRim" x1="0" y1="0" x2="1" y2="0">
      <stop offset="0%" stop-color="#a855f7" stop-opacity="0"/>
      <stop offset="46%" stop-color="#a855f7" stop-opacity="0.82"/>
      <stop offset="100%" stop-color="#a855f7" stop-opacity="0"/>
    </linearGradient>
    <radialGradient id="ionGlow" cx="0.5" cy="0.32" r="0.7">
      <stop offset="0%" stop-color="#f0abfc" stop-opacity="0.28"/>
      <stop offset="100%" stop-color="#f0abfc" stop-opacity="0"/>
    </radialGradient>

    <linearGradient id="forumGradient" x1="0" y1="0" x2="0" y2="1">
      <stop offset="0%" stop-color="#000514"/>
      <stop offset="45%" stop-color="#04172f"/>
      <stop offset="100%" stop-color="#0f2746"/>
    </linearGradient>
    <linearGradient id="forumRim" x1="0" y1="0" x2="1" y2="0">
      <stop offset="0%" stop-color="#f97316" stop-opacity="0"/>
      <stop offset="44%" stop-color="#f97316" stop-opacity="0.85"/>
      <stop offset="100%" stop-color="#f97316" stop-opacity="0"/>
    </linearGradient>
    <radialGradient id="forumGlow" cx="0.5" cy="0.34" r="0.72">
      <stop offset="0%" stop-color="#fdba74" stop-opacity="0.28"/>
      <stop offset="100%" stop-color="#fdba74" stop-opacity="0"/>
    </radialGradient>

    <pattern id="stadiumStars" x="0" y="0" width="22" height="22" patternUnits="userSpaceOnUse">
      <rect width="22" height="22" fill="none"/>
      <circle cx="4" cy="6" r="1.1" fill="#f8fafc" opacity="0.35"/>
      <circle cx="14" cy="2" r="1.5" fill="#38bdf8" opacity="0.4"/>
      <circle cx="18" cy="16" r="1.3" fill="#f472b6" opacity="0.45"/>
      <circle cx="8" cy="18" r="1" fill="#fde68a" opacity="0.45"/>
    </pattern>
  </defs>

  <rect width="1320" height="400" fill="#010409"/>
  <rect width="1320" height="400" fill="url(#stadiumStars)" opacity="0.35"/>

  <g transform="translate(40 48)">
    <rect width="360" height="304" rx="28" fill="url(#luminariaGradient)"/>
    <rect width="360" height="304" rx="28" fill="url(#luminariaRim)" opacity="0.8"/>
    <rect x="26" y="32" width="308" height="220" rx="18" fill="url(#luminariaGlow)"/>
    <g fill="#0ea5e9" opacity="0.45">
      <rect x="44" y="70" width="64" height="10" rx="5"/>
      <rect x="118" y="60" width="72" height="12" rx="6"/>
      <rect x="204" y="66" width="82" height="10" rx="5"/>
    </g>
    <g fill="none" stroke="#38bdf8" stroke-width="4" stroke-linecap="round" stroke-linejoin="round">
      <path d="M66 250 C90 190 148 160 210 166 C260 172 298 206 304 250" opacity="0.9"/>
      <path d="M82 240 C116 186 176 156 224 166 C266 176 292 204 292 236" stroke-dasharray="14 10" opacity="0.65"/>
      <circle cx="210" cy="166" r="9" fill="#38bdf8"/>
      <circle cx="304" cy="250" r="9" fill="#38bdf8"/>
    </g>
    <g fill="#38bdf8" opacity="0.55">
      <rect x="50" y="216" width="36" height="12" rx="6"/>
      <rect x="102" y="226" width="42" height="12" rx="6"/>
      <rect x="154" y="214" width="40" height="12" rx="6"/>
      <rect x="240" y="228" width="48" height="12" rx="6"/>
    </g>
    <text x="36" y="96" fill="#e0f2fe" font-family="'Orbitron', sans-serif" font-size="28" letter-spacing="0.24em">LUMINARIA</text>
    <text x="36" y="130" fill="#bae6fd" font-family="'Orbitron', sans-serif" font-size="20" letter-spacing="0.34em">CIRCUIT</text>
    <text x="36" y="164" fill="#bae6fd" font-family="'Rajdhani', sans-serif" font-size="16" opacity="0.88">Sky-Lounges · Prism Tribünen · Voltaic Fountain</text>
    <text x="36" y="190" fill="#7dd3fc" font-family="'Rajdhani', sans-serif" font-size="14" opacity="0.82">Crew Callouts: Halo Grandstand · Meridian Pit Spine · Aurora Carousel</text>
  </g>

  <g transform="translate(480 48)">
    <rect width="360" height="304" rx="28" fill="url(#ionGradient)"/>
    <rect width="360" height="304" rx="28" fill="url(#ionRim)" opacity="0.78"/>
    <rect x="26" y="32" width="308" height="220" rx="18" fill="url(#ionGlow)"/>
    <g fill="#c084fc" opacity="0.5">
      <rect x="48" y="72" width="58" height="10" rx="5"/>
      <rect x="116" y="58" width="70" height="14" rx="6"/>
      <rect x="206" y="68" width="80" height="12" rx="6"/>
    </g>
    <g fill="none" stroke="#a855f7" stroke-width="4" stroke-linecap="round" stroke-linejoin="round">
      <path d="M64 256 C94 182 156 140 214 150 C268 160 312 212 302 270" opacity="0.92"/>
      <path d="M86 244 C122 184 180 150 234 160 C272 168 294 198 288 234" stroke-dasharray="14 10" opacity="0.65"/>
      <circle cx="214" cy="150" r="9" fill="#a855f7"/>
      <circle cx="302" cy="270" r="9" fill="#a855f7"/>
    </g>
    <g fill="#d8b4fe" opacity="0.5">
      <polygon points="64,208 108,208 96,232 52,232"/>
      <polygon points="154,214 206,214 194,240 142,240"/>
      <polygon points="232,224 288,224 276,246 220,246"/>
    </g>
    <text x="36" y="96" fill="#f5f3ff" font-family="'Orbitron', sans-serif" font-size="28" letter-spacing="0.28em">ION</text>
    <text x="36" y="130" fill="#ede9fe" font-family="'Orbitron', sans-serif" font-size="20" letter-spacing="0.32em">VELODROME</text>
    <text x="36" y="164" fill="#ede9fe" font-family="'Rajdhani', sans-serif" font-size="16" opacity="0.88">Flux-Tunnels · Cycler Loop · Arena-Foreshores</text>
    <text x="36" y="190" fill="#d8b4fe" font-family="'Rajdhani', sans-serif" font-size="14" opacity="0.82">Crew Callouts: Dynamo Spire · Staccato Grandstand · Phase Gate</text>
  </g>

  <g transform="translate(920 48)">
    <rect width="360" height="304" rx="28" fill="url(#forumGradient)"/>
    <rect width="360" height="304" rx="28" fill="url(#forumRim)" opacity="0.82"/>
    <rect x="26" y="32" width="308" height="220" rx="18" fill="url(#forumGlow)"/>
    <g fill="#f97316" opacity="0.55">
      <rect x="52" y="74" width="60" height="10" rx="5"/>
      <rect x="124" y="60" width="78" height="12" rx="6"/>
      <rect x="212" y="70" width="88" height="12" rx="6"/>
    </g>
    <g fill="none" stroke="#fb923c" stroke-width="4" stroke-linecap="round" stroke-linejoin="round">
      <path d="M62 252 C92 188 150 154 212 164 C268 174 312 214 308 266" opacity="0.9"/>
      <path d="M86 238 C122 186 176 156 232 166 C272 174 294 202 294 238" stroke-dasharray="14 10" opacity="0.65"/>
      <circle cx="212" cy="164" r="9" fill="#fb923c"/>
      <circle cx="308" cy="266" r="9" fill="#fb923c"/>
    </g>
    <g fill="#fb923c" opacity="0.55">
      <rect x="60" y="214" width="48" height="12" rx="6"/>
      <rect x="132" y="226" width="58" height="12" rx="6"/>
      <rect x="214" y="216" width="56" height="12" rx="6"/>
      <rect x="264" y="232" width="44" height="12" rx="6"/>
    </g>
    <text x="36" y="96" fill="#ffedd5" font-family="'Orbitron', sans-serif" font-size="28" letter-spacing="0.26em">PARALLAX</text>
    <text x="36" y="130" fill="#fed7aa" font-family="'Orbitron', sans-serif" font-size="20" letter-spacing="0.34em">FORUM</text>
    <text x="36" y="164" fill="#fed7aa" font-family="'Rajdhani', sans-serif" font-size="16" opacity="0.88">Stadion-Terrassen · Chorus Stands · Solar Tapestries</text>
    <text x="36" y="190" fill="#fdba74" font-family="'Rajdhani', sans-serif" font-size="14" opacity="0.82">Crew Callouts: Orbit Gallery · Horizon Podium · Ember Gallery</text>
  </g>
</svg>
